<svg width="16" height="14" viewBox="0 0 16 14" fill="none" xmlns="http://www.w3.org/2000/svg">
<path d="M5.02734 8.49023H7.29492L8.26172 9.73828C8.86816 9.02637 9.21094 7.9541 9.21094 6.53906C9.21094 3.81445 7.92773 2.33789 5.95898 2.33789C3.99023 2.33789 2.68945 3.81445 2.68945 6.53906C2.68945 9.26367 3.99023 10.7402 5.95898 10.7402C6.21387 10.7402 6.45996 10.7139 6.69727 10.6699L5.02734 8.49023ZM11.9004 6.53906C11.9004 8.80664 11.127 10.5557 9.87891 11.6543L11.6895 13.957H9.21094L8.19141 12.6738C7.50586 12.9463 6.75 13.0781 5.95898 13.0781C2.56641 13.0781 0 10.6699 0 6.53906C0 2.39062 2.56641 0 5.95898 0C9.31641 0 11.9004 2.39062 11.9004 6.53906ZM14.4844 13.0605C13.6582 13.0605 12.9902 12.3926 13.0078 11.584C12.9902 10.7754 13.6582 10.125 14.4844 10.125C15.2578 10.125 15.9434 10.7754 15.9434 11.584C15.9434 12.3926 15.2578 13.0605 14.4844 13.0605Z" fill="black"/>
</svg>
