<svg width="49" height="54" viewBox="0 0 49 54" fill="none" xmlns="http://www.w3.org/2000/svg">
<path d="M33.8 46.31C33.8 46.79 33.71 47.22 33.54 47.63C33.37 48.04 33.12 48.4 32.81 48.72C32.5 49.03 32.13 49.28 31.73 49.45C31.32 49.62 30.88 49.72 30.41 49.72H7.38C6.9 49.72 6.46 49.62 6.06 49.45C5.66 49.28 5.29004 49.03 4.98004 48.72C4.68004 48.41 4.43 48.05 4.25 47.64C4.08 47.24 3.99004 46.79 3.98004 46.32V35.71V7.37C3.98004 6.89 4.07 6.45 4.25 6.05C4.42 5.65 4.67004 5.28 4.98004 4.97C5.29004 4.66 5.66 4.41 6.06 4.24C6.46 4.07 6.91001 3.98 7.38 3.98H30.41C30.88 3.98 31.32 4.08 31.74 4.25C32.14 4.42 32.51 4.67 32.81 4.98C33.12 5.29 33.37 5.66 33.54 6.06C33.71 6.47 33.81 6.91 33.81 7.39V15.47H37.81V7.39C37.81 6.37 37.6 5.4 37.23 4.51C36.86 3.63 36.32 2.83 35.65 2.16C34.98 1.49 34.19 0.95 33.3 0.58C32.41 0.21 31.43 0 30.42 0H18.91H13.15H7.40002C6.38002 0 5.40002 0.21 4.52002 0.58C3.63002 0.96 2.84004 1.5 2.17004 2.16C1.50004 2.83 0.960017 3.63 0.580017 4.51C0.200017 5.4 0 6.38 0 7.39V18V46.34C0 47.36 0.210017 48.33 0.580017 49.22C0.950017 50.1 1.49003 50.9 2.16003 51.57C2.83003 52.24 3.62001 52.78 4.51001 53.16C5.39001 53.53 6.37001 53.74 7.39001 53.74H30.42C31.43 53.74 32.41 53.53 33.3 53.16C34.19 52.79 34.98 52.24 35.65 51.58C36.32 50.91 36.86 50.12 37.23 49.23C37.61 48.35 37.81 47.37 37.81 46.35V38.27H33.81V46.35L33.8 46.31ZM22.28 8.83H15.51V12.83H22.28V8.83ZM23.97 33.95C27.84 33.95 30.97 30.82 30.97 26.95C30.97 23.08 27.84 19.95 23.97 19.95C20.1 19.95 16.97 23.08 16.97 26.95C16.97 30.82 20.1 33.95 23.97 33.95ZM23.97 23.94C25.63 23.94 26.97 25.29 26.97 26.94C26.97 28.59 25.63 29.94 23.97 29.94C22.31 29.94 20.97 28.59 20.97 26.94C20.97 25.28 22.31 23.94 23.97 23.94ZM41.64 19.95C37.77 19.95 34.64 23.08 34.64 26.95C34.64 30.82 37.77 33.95 41.64 33.95C45.51 33.95 48.64 30.82 48.64 26.95C48.64 23.08 45.5 19.95 41.64 19.95ZM41.64 29.95C39.98 29.95 38.64 28.61 38.64 26.95C38.64 25.29 39.98 23.95 41.64 23.95C43.3 23.95 44.64 25.29 44.64 26.95C44.64 28.61 43.3 29.95 41.64 29.95Z" fill="url(#paint0_linear_1274_478)"/>
<defs>
<linearGradient id="paint0_linear_1274_478" x1="-0.02" y1="26.83" x2="48.64" y2="26.83" gradientUnits="userSpaceOnUse">
<stop stop-color="#3E3BF5"/>
<stop offset="1" stop-color="#DA41F9"/>
</linearGradient>
</defs>
</svg>
