<svg width="58" height="40" viewBox="0 0 58 40" fill="none" xmlns="http://www.w3.org/2000/svg">
<path d="M55.57 15.37C55.57 15.37 55.68 15.38 55.75 15.38C56.29 15.4 56.83 15.2 57.22 14.83C57.61 14.46 57.84 13.93 57.84 13.39V1.98999C57.84 1.45999 57.63 0.949987 57.25 0.579987C56.88 0.209987 56.36 0 55.84 0H2.01001C1.48001 0 0.970006 0.209987 0.600006 0.579987C0.230006 0.949987 0.0100098 1.46999 0.0100098 1.98999V13.39C0.0100098 13.93 0.230005 14.46 0.630005 14.83C1.02 15.2 1.55001 15.41 2.10001 15.38C2.18001 15.38 2.24001 15.38 2.29001 15.36C4.76001 15.42 6.74002 17.43 6.74002 19.92C6.74002 22.4 4.76001 24.41 2.29001 24.47C2.24001 24.47 2.18 24.46 2.09 24.45C1.55 24.43 1.01 24.63 0.619995 25C0.229995 25.37 0 25.9 0 26.45V37.85C0 38.38 0.209996 38.89 0.589996 39.26C0.959996 39.63 1.48 39.84 2 39.84H55.83C56.36 39.84 56.87 39.63 57.24 39.26C57.62 38.88 57.83 38.38 57.83 37.85V26.45C57.83 25.91 57.61 25.38 57.21 25C56.82 24.63 56.28 24.42 55.74 24.45C55.66 24.45 55.59 24.45 55.55 24.47C53.08 24.41 51.1 22.4 51.1 19.92C51.1 17.43 53.09 15.42 55.56 15.37H55.57ZM53.83 28.29V35.87H4V28.29C7.85 27.45 10.73 24.03 10.73 19.93C10.73 15.83 7.85 12.41 4 11.57V3.98999H53.82V11.57C49.97 12.41 47.1 15.83 47.09 19.93C47.09 24.03 49.97 27.45 53.82 28.29H53.83ZM23.54 17.65C22.16 17.65 21.04 18.77 21.04 20.15C21.04 21.53 22.16 22.65 23.54 22.65C24.92 22.65 26.04 21.53 26.04 20.15C26.04 18.77 24.92 17.65 23.54 17.65ZM33.65 17.65C32.27 17.65 31.15 18.77 31.15 20.15C31.15 21.53 32.27 22.65 33.65 22.65C35.03 22.65 36.15 21.53 36.15 20.15C36.15 18.77 35.03 17.65 33.65 17.65Z" fill="url(#paint0_linear_1274_466)"/>
<defs>
<linearGradient id="paint0_linear_1274_466" x1="22.58" y1="14.32" x2="61.57" y2="48.82" gradientUnits="userSpaceOnUse">
<stop stop-color="#EEC02D"/>
<stop offset="0.46" stop-color="#DA00E9"/>
<stop offset="1" stop-color="#F9EC38"/>
</linearGradient>
</defs>
</svg>
