<svg width="65" height="49" viewBox="0 0 65 49" fill="none" xmlns="http://www.w3.org/2000/svg">
<path d="M17.3 15.33V7.42001H13.3V14.17L9.88 16.11L11.85 19.59L16.29 17.08C16.92 16.73 17.3 16.06 17.3 15.34V15.33ZM64.51 22.98C64.23 22.3 63.81 21.69 63.3 21.18C62.79 20.67 62.18 20.26 61.51 19.97C60.83 19.68 60.08 19.52 59.31 19.52H47.03V13.29C47.03 12.52 46.87 11.77 46.58 11.08C46.3 10.41 45.88 9.80001 45.37 9.29001C44.86 8.78001 44.25 8.36002 43.58 8.08002C42.9 7.79002 42.15 7.63001 41.38 7.64001H34.6H28.56C25.91 3.08001 20.98 0 15.32 0C6.86001 0 0 6.86001 0 15.32C0 21.36 3.51 26.57 8.59 29.06V37.65C8.59 39.21 9.23 40.63 10.25 41.65C11.27 42.67 12.69 43.31 14.25 43.31H16.87C17.61 46.37 20.36 48.64 23.65 48.64C26.94 48.64 29.68 46.37 30.43 43.31H45.05C45.05 43.31 45.13 43.31 45.18 43.31H47.62C48.36 46.37 51.11 48.64 54.4 48.64C57.81 48.64 60.64 46.19 61.26 42.96C61.35 42.93 61.45 42.9 61.54 42.86C62.22 42.57 62.83 42.16 63.34 41.65C63.85 41.14 64.27 40.53 64.55 39.85C64.84 39.17 65 38.42 64.99 37.65V31.42V25.18C64.99 24.4 64.83 23.66 64.54 22.98H64.51ZM3.98999 15.33C3.99999 9.08002 9.06 4.02001 15.31 4.01001C21.56 4.02001 26.62 9.08002 26.63 15.33C26.62 21.58 21.56 26.64 15.31 26.65C9.06 26.64 3.99999 21.58 3.98999 15.33ZM23.63 44.65C21.99 44.65 20.65 43.32 20.65 41.67C20.65 40.02 21.98 38.69 23.63 38.69C25.28 38.69 26.61 40.03 26.61 41.67C26.61 43.31 25.28 44.65 23.63 44.65ZM43.02 13.3V39.32H30.19C29.23 36.62 26.65 34.68 23.62 34.68C20.59 34.68 18.02 36.61 17.05 39.31H14.22C13.76 39.31 13.36 39.13 13.05 38.83C12.75 38.52 12.57 38.12 12.57 37.66V30.39C13.46 30.55 14.37 30.65 15.3 30.65C23.76 30.65 30.62 23.79 30.62 15.33C30.62 14.06 30.45 12.83 30.16 11.65H41.37C41.61 11.65 41.82 11.7 42.02 11.78C42.21 11.86 42.39 11.98 42.54 12.13C42.69 12.28 42.81 12.46 42.9 12.66C42.98 12.86 43.03 13.07 43.03 13.3H43.02ZM54.37 44.65C52.72 44.65 51.39 43.32 51.39 41.67C51.39 40.02 52.73 38.69 54.37 38.69C56.02 38.69 57.35 40.03 57.35 41.67C57.35 43.31 56.02 44.65 54.37 44.65ZM60.96 37.66C60.96 37.9 60.91 38.11 60.83 38.3C60.78 38.41 60.7 38.49 60.64 38.59C59.5 36.28 57.13 34.68 54.38 34.68C51.35 34.68 48.78 36.62 47.81 39.31H47.03V23.53H59.31C59.55 23.53 59.76 23.58 59.95 23.66C60.15 23.74 60.32 23.87 60.47 24.01C60.63 24.17 60.74 24.34 60.83 24.54C60.91 24.74 60.96 24.95 60.96 25.19V37.66Z" fill="url(#paint0_linear_1274_484)"/>
<defs>
<linearGradient id="paint0_linear_1274_484" x1="-0.01" y1="24.33" x2="64.96" y2="24.33" gradientUnits="userSpaceOnUse">
<stop stop-color="#88F2FF"/>
<stop offset="1" stop-color="#7200F9"/>
</linearGradient>
</defs>
</svg>
