<svg width="56" height="44" viewBox="0 0 56 44" fill="none" xmlns="http://www.w3.org/2000/svg">
<path d="M46.59 0H8.76C3.92 0 0 3.92 0 8.76V34.74C0 39.58 3.92 43.5 8.76 43.5H46.59C51.43 43.5 55.35 39.58 55.35 34.74V8.76C55.35 3.92 51.43 0 46.59 0ZM51.35 34.73C51.35 37.36 49.22 39.48 46.59 39.49H8.76C6.13 39.49 4.01 37.36 4 34.73V18.28H45.25V14.28H4V8.75C4 6.12 6.13 4 8.76 3.99H46.59C49.22 3.99 51.34 6.12 51.35 8.75V34.73ZM34.06 29.25C32.68 29.25 31.56 30.37 31.56 31.75C31.56 33.13 32.68 34.25 34.06 34.25C35.44 34.25 36.56 33.13 36.56 31.75C36.56 30.37 35.44 29.25 34.06 29.25ZM44.06 29.25C42.68 29.25 41.56 30.37 41.56 31.75C41.56 33.13 42.68 34.25 44.06 34.25C45.44 34.25 46.56 33.13 46.56 31.75C46.56 30.37 45.44 29.25 44.06 29.25Z" fill="url(#paint0_linear_1274_472)"/>
<defs>
<linearGradient id="paint0_linear_1274_472" x1="75.96" y1="92.33" x2="371.45" y2="524.31" gradientUnits="userSpaceOnUse">
<stop stop-color="#3E3BF5"/>
<stop offset="1" stop-color="#DA41F9"/>
</linearGradient>
</defs>
</svg>
