<svg width="40" height="57" viewBox="0 0 40 57" fill="none" xmlns="http://www.w3.org/2000/svg">
<path d="M38.79 4.66998C38.4 3.75998 37.84 2.92999 37.15 2.23999C36.46 1.54999 35.64 0.989976 34.72 0.599976C33.8 0.209976 32.79 0 31.74 0H7.65C6.6 0 5.59 0.219976 4.67 0.599976C3.75 0.989976 2.93 1.54999 2.24 2.23999C1.55 2.93999 0.99 3.75998 0.6 4.66998C0.21 5.58998 0 6.59996 0 7.64996V48.41C0 49.46 0.21 50.47 0.6 51.39C0.99 52.31 1.54 53.13 2.24 53.82C2.93 54.51 3.75 55.07 4.67 55.46C5.58 55.85 6.59 56.06 7.65 56.06H19.69H25.71H31.73C32.78 56.06 33.79 55.85 34.71 55.46C35.63 55.07 36.45 54.51 37.14 53.82C37.83 53.13 38.39 52.31 38.78 51.39C39.17 50.47 39.38 49.46 39.38 48.41V7.64996C39.38 6.59996 39.17 5.58998 38.78 4.66998H38.79ZM35.39 16.1V48.4C35.39 48.91 35.29 49.38 35.11 49.82C34.93 50.25 34.66 50.65 34.32 50.98C33.99 51.31 33.59 51.58 33.16 51.76C32.72 51.94 32.25 52.05 31.74 52.05H7.65C7.14 52.05 6.66 51.95 6.23 51.76C5.79 51.58 5.4 51.31 5.07 50.97C4.74 50.64 4.48 50.25 4.29 49.81C4.11 49.37 4 48.9 4 48.39V7.63C4 7.12 4.1 6.64996 4.29 6.20996C4.47 5.77996 4.74 5.37999 5.07 5.04999C5.4 4.71999 5.8 4.44996 6.23 4.26996C6.66 4.08996 7.14 3.98999 7.65 3.98999H19.69H25.71H31.73C32.23 3.98999 32.71 4.08997 33.15 4.27997C33.57 4.45997 33.97 4.73 34.3 5.06C34.63 5.39 34.9 5.78997 35.08 6.21997C35.27 6.65997 35.37 7.13001 35.37 7.64001V16.09L35.39 16.1ZM23.24 9.28998H16.16V13.29H23.24V9.28998ZM25.49 27.23L22.24 26.76L20.83 23.9C20.18 22.83 19.23 22.83 18.58 23.9L17.17 26.76L13.92 27.23C12.72 27.58 12.52 28.56 13.54 29.56C13.63 29.65 15.6 31.59 15.6 31.59L15.1 34.51C14.9 35.98 15.81 36.6 17.17 35.88C17.29 35.81 19.71 34.57 19.71 34.57C19.71 34.57 22.13 35.81 22.25 35.88C23.61 36.59 24.52 35.97 24.32 34.51L23.82 31.59C23.82 31.59 25.79 29.64 25.88 29.56C26.9 28.56 26.71 27.58 25.5 27.23H25.49Z" fill="url(#paint0_linear_1274_490)"/>
<defs>
<linearGradient id="paint0_linear_1274_490" x1="-14.51" y1="1.16" x2="64.16" y2="62.95" gradientUnits="userSpaceOnUse">
<stop offset="0.02" stop-color="#4244F9"/>
<stop offset="0.27" stop-color="#7300F9"/>
<stop offset="0.61" stop-color="#7DDCFD"/>
<stop offset="1" stop-color="#D3A4F8"/>
</linearGradient>
</defs>
</svg>
