<svg width="46" height="50" viewBox="0 0 46 50" fill="none" xmlns="http://www.w3.org/2000/svg">
<path d="M38.72 27.0273C36.3 24.2935 33.24 22.1375 29.78 20.8612C32.96 18.757 34.99 15.3246 35 11.5042C34.99 5.26055 29.58 0.0258717 22.58 0C15.59 0.0258717 10.17 5.26055 10.16 11.5042C10.16 15.3246 12.2 18.757 15.38 20.8612C11.92 22.1375 8.87 24.2935 6.44 27.0273C2.42 31.5548 0 37.7037 0 44.4562C0 45.6549 0.0799957 46.8278 0.229996 47.9747C0.339996 48.8458 1.2 49.5098 2.22 49.5098H42.95C43.97 49.5098 44.83 48.8458 44.94 47.9747C45.09 46.8278 45.16 45.6549 45.16 44.4562C45.16 37.7037 42.74 31.5634 38.72 27.0273ZM22.58 3.45814C27.09 3.45814 30.99 6.95946 31 11.5129C30.99 16.0663 27.1 19.559 22.58 19.559C18.06 19.559 14.17 16.0577 14.16 11.5129C14.17 6.95946 18.07 3.46676 22.58 3.45814ZM41.1 46.0516H4.04999C4.01999 45.5255 4 44.9908 4 44.4475C4 38.4108 6.18999 32.9777 9.62 29.1229C13.06 25.2594 17.63 23.0172 22.59 23.0172C27.55 23.0172 32.11 25.2594 35.55 29.1229C38.98 32.9777 41.17 38.4108 41.17 44.4475C41.17 44.9822 41.15 45.5255 41.12 46.0516H41.1Z" fill="url(#paint0_linear_1274_460)"/>
<defs>
<linearGradient id="paint0_linear_1274_460" x1="0" y1="24.7592" x2="45.16" y2="24.7592" gradientUnits="userSpaceOnUse">
<stop stop-color="#3E3BF5"/>
<stop offset="1" stop-color="#DA41F9"/>
</linearGradient>
</defs>
</svg>
