<svg width="24" height="24" viewBox="0 0 24 24" fill="none" xmlns="http://www.w3.org/2000/svg">
<path d="M24.0003 12.002C24.0003 11.7041 23.8608 11.4415 23.6457 11.2662L18.1155 5.22579C17.7577 4.83453 17.1478 4.80619 16.7538 5.16146C16.3597 5.51673 16.3304 6.12239 16.689 6.51365L20.8374 11.0457H9.77244C9.2404 11.0457 8.80859 11.4744 8.80859 12.0028C8.80859 12.5311 9.2404 12.9598 9.77244 12.9598H20.8374L16.689 17.4911C16.3312 17.8823 16.3597 18.4872 16.7538 18.8433C17.1478 19.1985 17.7569 19.1702 18.1155 18.779L23.6457 12.7386C23.86 12.5624 24.0003 12.2998 24.0003 12.002Z" fill="#1B1363"/>
<path d="M12.4298 22.0858H1.92769V1.91418H12.4298C12.9618 1.91418 13.3936 1.4854 13.3936 0.957091C13.3936 0.428777 12.9618 0 12.4298 0H0.963846C0.431803 0 0 0.428777 0 0.957091V23.0429C0 23.5712 0.431803 24 0.963846 24H12.4298C12.9618 24 13.3936 23.5712 13.3936 23.0429C13.3936 22.5146 12.9618 22.0858 12.4298 22.0858Z" fill="#1B1363"/>
</svg>
